<svg width="131" height="44" viewBox="0 0 131 44" fill="none" xmlns="http://www.w3.org/2000/svg">
<rect width="130.427" height="44" rx="8" fill="#090909"/>
<path d="M29.7589 22.8267C29.7849 20.8196 30.8683 18.9205 32.5871 17.8692C31.5028 16.3286 29.6866 15.3518 27.7971 15.293C25.7818 15.0826 23.828 16.4928 22.8011 16.4928C21.7542 16.4928 20.173 15.3139 18.4703 15.3488C16.251 15.4201 14.182 16.6754 13.1022 18.6058C10.7811 22.6037 12.5124 28.4794 14.7358 31.711C15.8482 33.2934 17.1483 35.0611 18.8495 34.9984C20.5141 34.9297 21.1359 33.9423 23.1453 33.9423C25.136 33.9423 25.7193 34.9984 27.455 34.9585C29.2412 34.9297 30.3667 33.3691 31.4401 31.7716C32.2393 30.6441 32.8544 29.3979 33.2624 28.0792C31.1632 27.1959 29.7613 25.0942 29.7589 22.8267Z" fill="white"/>
<path d="M26.4805 13.1677C27.4544 12.0045 27.9343 10.5095 27.8181 9C26.3301 9.15548 24.9556 9.86298 23.9685 10.9815C23.0033 12.0744 22.5009 13.5432 22.5959 14.995C24.0844 15.0102 25.5477 14.3219 26.4805 13.1677Z" fill="white"/>
<path d="M88.5466 19.7873V22.2194H87.0142V23.8144H88.5466V29.2339C88.5466 31.0844 89.388 31.8246 91.505 31.8246C91.877 31.8246 92.2313 31.7806 92.5413 31.7277V30.1503C92.2756 30.1768 92.1073 30.1944 91.815 30.1944C90.8672 30.1944 90.4509 29.7538 90.4509 28.7492V23.8144H92.5413V22.2194H90.4509V19.7873H88.5466Z" fill="white"/>
<path d="M97.9342 31.9568C100.751 31.9568 102.478 30.0798 102.478 26.9692C102.478 23.8761 100.742 21.9903 97.9342 21.9903C95.1175 21.9903 93.3814 23.8761 93.3814 26.9692C93.3814 30.0798 95.1086 31.9568 97.9342 31.9568ZM97.9342 30.2737C96.2778 30.2737 95.3478 29.0664 95.3478 26.9692C95.3478 24.8895 96.2778 23.6734 97.9342 23.6734C99.5817 23.6734 100.521 24.8895 100.521 26.9692C100.521 29.0576 99.5817 30.2737 97.9342 30.2737Z" fill="white"/>
<path d="M103.956 31.7717H105.86V26.1056C105.86 24.7573 106.879 23.8497 108.323 23.8497C108.659 23.8497 109.226 23.9114 109.386 23.9642V22.0961C109.182 22.0432 108.819 22.0168 108.535 22.0168C107.277 22.0168 106.206 22.7041 105.931 23.647H105.789V22.1754H103.956V31.7717Z" fill="white"/>
<path d="M114.114 23.6029C115.522 23.6029 116.444 24.5811 116.488 26.0879H111.616C111.723 24.5899 112.706 23.6029 114.114 23.6029ZM116.479 29.181C116.125 29.93 115.336 30.3442 114.185 30.3442C112.661 30.3442 111.678 29.2779 111.616 27.5948V27.4891H118.428V26.8282C118.428 23.8144 116.807 21.9903 114.123 21.9903C111.404 21.9903 109.676 23.9378 109.676 27.0044C109.676 30.071 111.368 31.9568 114.132 31.9568C116.337 31.9568 117.879 30.8993 118.313 29.181H116.479Z" fill="white"/>
<path d="M76.0579 28.228C76.2048 30.5844 78.1786 32.0914 81.1164 32.0914C84.2562 32.0914 86.2209 30.5113 86.2209 27.9905C86.2209 26.0085 85.1008 24.9125 82.3834 24.2823L80.9236 23.9261C79.1977 23.5242 78.5 22.9853 78.5 22.0446C78.5 20.8572 79.5833 20.0809 81.2082 20.0809C82.7506 20.0809 83.8155 20.839 84.0083 22.0537H86.0097C85.8904 19.8343 83.9257 18.2725 81.2358 18.2725C78.3439 18.2725 76.416 19.8343 76.416 22.1816C76.416 24.1179 77.5085 25.2687 79.9046 25.8259L81.6122 26.2369C83.3657 26.6479 84.1369 27.2507 84.1369 28.2554C84.1369 29.4244 82.925 30.2739 81.2725 30.2739C79.5006 30.2739 78.2704 29.4792 78.096 28.228H76.0579Z" fill="white"/>
<path d="M56.3305 22.0168C55.0196 22.0168 53.8858 22.6688 53.3012 23.7615H53.1595V22.1754H51.326V34.9617H53.2303V30.3177H53.3809C53.8858 31.3311 54.9753 31.9304 56.3482 31.9304C58.784 31.9304 60.3341 30.0181 60.3341 26.9692C60.3341 23.9202 58.784 22.0168 56.3305 22.0168ZM55.7902 30.2296C54.1958 30.2296 53.1949 28.9783 53.1949 26.978C53.1949 24.9688 54.1958 23.7175 55.799 23.7175C57.4111 23.7175 58.3766 24.9424 58.3766 26.9692C58.3766 29.0047 57.4111 30.2296 55.7902 30.2296Z" fill="white"/>
<path d="M66.9979 22.0168C65.6869 22.0168 64.5532 22.6688 63.9686 23.7615H63.8268V22.1754H61.9933V34.9617H63.8977V30.3177H64.0483C64.5532 31.3311 65.6426 31.9304 67.0156 31.9304C69.4514 31.9304 71.0015 30.0181 71.0015 26.9692C71.0015 23.9202 69.4514 22.0168 66.9979 22.0168ZM66.4575 30.2296C64.8632 30.2296 63.8623 28.9783 63.8623 26.978C63.8623 24.9688 64.8632 23.7175 66.4664 23.7175C68.0785 23.7175 69.044 24.9424 69.044 26.9692C69.044 29.0047 68.0785 30.2296 66.4575 30.2296Z" fill="white"/>
<path d="M47.9092 31.7717H50.0942L45.3111 18.5921H43.0985L38.3154 31.7717H40.427L41.648 28.2736H46.6973L47.9092 31.7717ZM44.0992 20.9851H44.2553L46.174 26.5565H42.1713L44.0992 20.9851Z" fill="white"/>
<path d="M38.2627 9.29539V14.505H40.1533C41.7137 14.505 42.6173 13.5482 42.6173 11.8839C42.6173 10.2449 41.7065 9.29539 40.1533 9.29539H38.2627ZM39.0756 10.0319H40.0626C41.1476 10.0319 41.79 10.7178 41.79 11.8948C41.79 13.0897 41.1585 13.7685 40.0626 13.7685H39.0756V10.0319Z" fill="white"/>
<path d="M45.3847 14.5808C46.5387 14.5808 47.2463 13.8118 47.2463 12.5374C47.2463 11.2702 46.5351 10.4976 45.3847 10.4976C44.2307 10.4976 43.5195 11.2702 43.5195 12.5374C43.5195 13.8118 44.2271 14.5808 45.3847 14.5808ZM45.3847 13.8912C44.7061 13.8912 44.3251 13.3966 44.3251 12.5374C44.3251 11.6854 44.7061 11.1871 45.3847 11.1871C46.0597 11.1871 46.4443 11.6854 46.4443 12.5374C46.4443 13.393 46.0597 13.8912 45.3847 13.8912Z" fill="white"/>
<path d="M53.2724 10.5734H52.4922L51.7882 13.5735H51.7265L50.9136 10.5734H50.1661L49.3532 13.5735H49.2952L48.5875 10.5734H47.7964L48.8851 14.505H49.6871L50.4999 11.6095H50.5616L51.3781 14.505H52.1874L53.2724 10.5734Z" fill="white"/>
<path d="M54.1709 14.505H54.9511V12.2052C54.9511 11.5915 55.3176 11.2088 55.8946 11.2088C56.4716 11.2088 56.7474 11.5229 56.7474 12.1547V14.505H57.5276V11.9597C57.5276 11.0247 57.0413 10.4976 56.1595 10.4976C55.5644 10.4976 55.1725 10.7611 54.9801 11.198H54.9221V10.5734H54.1709V14.505Z" fill="white"/>
<path d="M58.7563 14.505H59.5365V9.03906H58.7563V14.505Z" fill="white"/>
<path d="M62.4708 14.5808C63.6248 14.5808 64.3324 13.8118 64.3324 12.5374C64.3324 11.2702 63.6212 10.4976 62.4708 10.4976C61.3169 10.4976 60.6056 11.2702 60.6056 12.5374C60.6056 13.8118 61.3132 14.5808 62.4708 14.5808ZM62.4708 13.8912C61.7922 13.8912 61.4112 13.3966 61.4112 12.5374C61.4112 11.6854 61.7922 11.1871 62.4708 11.1871C63.1458 11.1871 63.5305 11.6854 63.5305 12.5374C63.5305 13.393 63.1458 13.8912 62.4708 13.8912Z" fill="white"/>
<path d="M66.6571 13.9165C66.2325 13.9165 65.9241 13.7107 65.9241 13.3569C65.9241 13.0103 66.1708 12.8262 66.7152 12.7901L67.6804 12.7287V13.0572C67.6804 13.5446 67.245 13.9165 66.6571 13.9165ZM66.4575 14.5699C66.9764 14.5699 67.4083 14.3461 67.6441 13.9526H67.7058V14.505H68.457V11.8189C68.457 10.9886 67.8982 10.4976 66.9075 10.4976C66.0112 10.4976 65.3725 10.9308 65.2926 11.6059H66.0474C66.1345 11.3279 66.4357 11.1691 66.8712 11.1691C67.4046 11.1691 67.6804 11.4038 67.6804 11.8189V12.1583L66.6099 12.2197C65.67 12.2774 65.1402 12.6854 65.1402 13.393C65.1402 14.1114 65.6954 14.5699 66.4575 14.5699Z" fill="white"/>
<path d="M71.1046 14.5699C71.649 14.5699 72.1098 14.3136 72.3457 13.884H72.4074V14.505H73.1549V9.03906H72.3747V11.198H72.3167C72.1026 10.7648 71.6453 10.5084 71.1046 10.5084C70.1067 10.5084 69.4644 11.2955 69.4644 12.5374C69.4644 13.7829 70.0994 14.5699 71.1046 14.5699ZM71.326 11.2052C71.9792 11.2052 72.3892 11.7215 72.3892 12.541C72.3892 13.3641 71.9828 13.8732 71.326 13.8732C70.6655 13.8732 70.27 13.3713 70.27 12.5374C70.27 11.7106 70.6692 11.2052 71.326 11.2052Z" fill="white"/>
<path d="M78.2143 14.5808C79.3683 14.5808 80.0759 13.8118 80.0759 12.5374C80.0759 11.2702 79.3646 10.4976 78.2143 10.4976C77.0603 10.4976 76.3491 11.2702 76.3491 12.5374C76.3491 13.8118 77.0567 14.5808 78.2143 14.5808ZM78.2143 13.8912C77.5357 13.8912 77.1547 13.3966 77.1547 12.5374C77.1547 11.6854 77.5357 11.1871 78.2143 11.1871C78.8893 11.1871 79.2739 11.6854 79.2739 12.5374C79.2739 13.393 78.8893 13.8912 78.2143 13.8912Z" fill="white"/>
<path d="M81.1087 14.505H81.8889V12.2052C81.8889 11.5915 82.2554 11.2088 82.8324 11.2088C83.4094 11.2088 83.6852 11.5229 83.6852 12.1547V14.505H84.4654V11.9597C84.4654 11.0247 83.9791 10.4976 83.0973 10.4976C82.5022 10.4976 82.1102 10.7611 81.9179 11.198H81.8599V10.5734H81.1087V14.505Z" fill="white"/>
<path d="M88.0587 9.59504V10.5915H87.4309V11.2449H88.0587V13.4652C88.0587 14.2234 88.4034 14.5266 89.2707 14.5266C89.4231 14.5266 89.5683 14.5086 89.6953 14.4869V13.8407C89.5864 13.8515 89.5175 13.8587 89.3977 13.8587C89.0094 13.8587 88.8389 13.6782 88.8389 13.2666V11.2449H89.6953V10.5915H88.8389V9.59504H88.0587Z" fill="white"/>
<path d="M90.7426 14.505H91.5228V12.2088C91.5228 11.6132 91.8784 11.2124 92.5171 11.2124C93.0687 11.2124 93.3626 11.5301 93.3626 12.1583V14.505H94.1428V11.967C94.1428 11.0319 93.6239 10.5012 92.782 10.5012C92.1869 10.5012 91.7696 10.7648 91.5772 11.2052H91.5155V9.03906H90.7426V14.505Z" fill="white"/>
<path d="M96.9574 11.1583C97.5344 11.1583 97.9118 11.559 97.9299 12.1764H95.934C95.9776 11.5626 96.3804 11.1583 96.9574 11.1583ZM97.9263 13.4435C97.7811 13.7504 97.4582 13.9201 96.9864 13.9201C96.3622 13.9201 95.9594 13.4833 95.934 12.7937V12.7504H98.7246V12.4796C98.7246 11.2449 98.0605 10.4976 96.961 10.4976C95.8469 10.4976 95.1393 11.2955 95.1393 12.5518C95.1393 13.8082 95.8324 14.5808 96.9646 14.5808C97.8682 14.5808 98.4996 14.1475 98.6775 13.4435H97.9263Z" fill="white"/>
</svg>
