<svg id="Icon" xmlns="http://www.w3.org/2000/svg" width="24" height="24" viewBox="0 0 24 24">
  <rect id="Icon_Frame_Background_" data-name="Icon [Frame Background]" width="24" height="24" fill="none"/>
  <path id="Icon-2" data-name="Icon" d="M15.3,5.272a2.5,2.5,0,0,1,1.093,1.093A6.211,6.211,0,0,1,16.667,9v2.25a4.184,4.184,0,0,1-.032.742A1.667,1.667,0,0,1,15.325,13.3a4.184,4.184,0,0,1-.742.032h-.417A1.667,1.667,0,0,1,12.5,11.667a.417.417,0,0,0-.417-.417h-7.5a.417.417,0,0,0-.417.417A1.667,1.667,0,0,1,2.5,13.333H2.083a4.184,4.184,0,0,1-.742-.032A1.667,1.667,0,0,1,.032,11.992,4.184,4.184,0,0,1,0,11.25V9A6.211,6.211,0,0,1,.272,6.365,2.5,2.5,0,0,1,1.365,5.272,6.211,6.211,0,0,1,4,5h8.667a6.211,6.211,0,0,1,2.635.272Z" transform="translate(4 5)" fill="none" stroke="#ffd177" stroke-linecap="round" stroke-linejoin="round" stroke-width="1.667"/>
  <path id="Icon-3" data-name="Icon" d="M2.5,7.5H5M0,4.167,1.667,5,2.726,1.823A3.82,3.82,0,0,1,3.256.6,1.667,1.667,0,0,1,3.925.116,3.82,3.82,0,0,1,5.255,0h6.156a3.82,3.82,0,0,1,1.331.116A1.667,1.667,0,0,1,13.411.6a3.82,3.82,0,0,1,.531,1.226L15,5l1.667-.833M14.167,7.5h-2.5" transform="translate(4 5)" fill="none" stroke="#ffd177" stroke-linecap="round" stroke-linejoin="round" stroke-width="1.667"/>
</svg>
