<svg width="134" height="44" viewBox="0 0 134 44" fill="none" xmlns="http://www.w3.org/2000/svg">
<rect x="0.427734" width="133.077" height="44" rx="8" fill="#090909"/>
<g filter="url(#filter0_ii_5480_14752)">
<path d="M12.8949 9.78541C12.6013 10.0873 12.4277 10.5558 12.4277 11.1624V32.838C12.4277 33.4456 12.6013 33.9131 12.8949 34.215L12.9695 34.2856L25.469 22.1433V22.0002V21.8571L12.9695 9.71387L12.8949 9.78541Z" fill="url(#paint0_linear_5480_14752)"/>
<path d="M29.6346 26.1922L25.4687 22.1435V22.0004V21.8573L29.6356 17.8096L29.7294 17.8615L34.666 20.5862C36.0755 21.3643 36.0755 22.6375 34.666 23.4166L29.7294 26.1413L29.6346 26.1922Z" fill="url(#paint1_linear_5480_14752)"/>
<g filter="url(#filter1_i_5480_14752)">
<path d="M29.7293 26.1399L25.4676 22L12.8945 34.2148C13.3586 34.6931 14.1264 34.7519 14.9911 34.2756L29.7293 26.1399Z" fill="url(#paint2_linear_5480_14752)"/>
</g>
<path d="M29.7293 17.8606L14.9911 9.72587C14.1264 9.24857 13.3586 9.30835 12.8945 9.78663L25.4687 22.0014L29.7293 17.8606Z" fill="url(#paint3_linear_5480_14752)"/>
</g>
<path d="M66.5402 23.2151C64.299 23.2151 62.4723 24.8638 62.4723 27.1346C62.4723 29.3916 64.299 31.0541 66.5402 31.0541C68.7824 31.0541 70.6091 29.3916 70.6091 27.1346C70.6081 24.8638 68.7814 23.2151 66.5402 23.2151ZM66.5402 29.5114C65.3119 29.5114 64.2533 28.5317 64.2533 27.1355C64.2533 25.7245 65.3129 24.7596 66.5402 24.7596C67.7685 24.7596 68.8272 25.7245 68.8272 27.1355C68.8272 28.5308 67.7685 29.5114 66.5402 29.5114ZM57.665 23.2151C55.4238 23.2151 53.5971 24.8638 53.5971 27.1346C53.5971 29.3916 55.4238 31.0541 57.665 31.0541C59.9072 31.0541 61.7339 29.3916 61.7339 27.1346C61.7339 24.8638 59.9072 23.2151 57.665 23.2151ZM57.665 29.5114C56.4367 29.5114 55.3781 28.5317 55.3781 27.1355C55.3781 25.7245 56.4377 24.7596 57.665 24.7596C58.8933 24.7596 59.9519 25.7245 59.9519 27.1355C59.9529 28.5308 58.8933 29.5114 57.665 29.5114ZM47.1089 24.4187V26.0812H51.2235C51.1006 27.0166 50.7785 27.6995 50.2868 28.1741C49.6884 28.7529 48.7517 29.3916 47.1089 29.3916C44.5761 29.3916 42.596 27.4166 42.596 24.967C42.596 22.5174 44.5761 20.5424 47.1089 20.5424C48.4754 20.5424 49.473 21.0622 50.2096 21.7304L51.4226 20.5572C50.3935 19.607 49.028 18.8799 47.1089 18.8799C43.6394 18.8799 40.7227 21.6115 40.7227 24.967C40.7227 28.3225 43.6394 31.0541 47.1089 31.0541C48.9813 31.0541 50.3945 30.4597 51.4989 29.3464C52.6347 28.2479 52.9882 26.7033 52.9882 25.4564C52.9882 25.0711 52.9577 24.7145 52.8958 24.4177L47.1089 24.4187ZM90.2824 25.7098C89.9451 24.8343 88.916 23.2151 86.8129 23.2151C84.7251 23.2151 82.9899 24.8039 82.9899 27.1346C82.9899 29.3317 84.7099 31.0541 87.0121 31.0541C88.8693 31.0541 89.9441 29.9556 90.3901 29.3169L89.0084 28.4257C88.5481 29.0791 87.9183 29.5095 87.0121 29.5095C86.1068 29.5095 85.4617 29.1086 85.0472 28.3216L90.4663 26.154L90.2824 25.7098ZM84.7556 27.0166C84.7099 25.5015 85.9687 24.7302 86.8749 24.7302C87.5809 24.7302 88.1794 25.0721 88.3795 25.5614L84.7556 27.0166ZM80.3504 30.8173H82.1304V19.2964H80.3504V30.8173ZM77.4327 24.0915H77.3717C76.9724 23.6307 76.2044 23.2151 75.2382 23.2151C73.2114 23.2151 71.3542 24.9375 71.3542 27.1503C71.3542 29.3473 73.2114 31.055 75.2382 31.055C76.2054 31.055 76.9724 30.6394 77.3717 30.1648H77.4327V30.7288C77.4327 32.2282 76.6037 33.03 75.2687 33.03C74.1786 33.03 73.503 32.2734 73.2266 31.6347L71.6763 32.2586C72.1213 33.2973 73.3029 34.5746 75.2687 34.5746C77.3565 34.5746 79.1222 33.3867 79.1222 30.491V23.4537H77.4336L77.4327 24.0915ZM75.3916 29.5114C74.1633 29.5114 73.1352 28.5161 73.1352 27.1503C73.1352 25.7688 74.1633 24.7596 75.3916 24.7596C76.6037 24.7596 77.5556 25.7688 77.5556 27.1503C77.5556 28.5161 76.6037 29.5114 75.3916 29.5114ZM98.624 19.2964H94.3636V30.8173H96.1407V26.4526H98.623C100.594 26.4526 102.532 25.073 102.532 22.875C102.532 20.677 100.595 19.2964 98.624 19.2964ZM98.6697 24.849H96.1407V20.9H98.6697C99.999 20.9 100.754 21.9645 100.754 22.875C100.754 23.7671 99.999 24.849 98.6697 24.849ZM109.658 23.1948C108.371 23.1948 107.038 23.7431 106.486 24.9587L108.064 25.5955C108.402 24.9587 109.03 24.7504 109.689 24.7504C110.608 24.7504 111.543 25.284 111.558 26.2323V26.3512C111.236 26.1734 110.547 25.907 109.704 25.907C108.003 25.907 106.271 26.8111 106.271 28.5004C106.271 30.0422 107.666 31.0348 109.229 31.0348C110.424 31.0348 111.083 30.5159 111.497 29.9077H111.558V30.797H113.275V26.3798C113.276 24.3357 111.696 23.1948 109.658 23.1948ZM109.443 29.5086C108.862 29.5086 108.049 29.2266 108.049 28.5299C108.049 27.6405 109.061 27.2995 109.935 27.2995C110.715 27.2995 111.084 27.4627 111.558 27.6848C111.42 28.7529 110.47 29.5086 109.443 29.5086ZM119.527 23.4464L117.489 28.4414H117.428L115.313 23.4464H113.398L116.57 30.4274L114.761 34.311H116.615L121.505 23.4464H119.527ZM103.513 30.8173H105.29V19.2964H103.513V30.8173Z" fill="white"/>
<path d="M46.8883 12.4815C46.8883 13.2398 46.6522 13.8434 46.1791 14.294C45.6421 14.8297 44.9414 15.0976 44.0808 15.0976C43.2563 15.0976 42.5547 14.8261 41.9787 14.2831C41.4017 13.7393 41.1133 13.0661 41.1133 12.2625C41.1133 11.4581 41.4017 10.7848 41.9787 10.2419C42.5547 9.69804 43.2563 9.42657 44.0808 9.42657C44.4902 9.42657 44.8814 9.50258 45.2527 9.6537C45.625 9.80572 45.923 10.0075 46.1457 10.26L45.644 10.7378C45.2661 10.3079 44.7453 10.0935 44.0798 10.0935C43.4781 10.0935 42.9583 10.2944 42.5194 10.6961C42.0805 11.0979 41.8616 11.62 41.8616 12.2616C41.8616 12.9032 42.0805 13.4253 42.5194 13.8271C42.9583 14.2288 43.4781 14.4297 44.0798 14.4297C44.7177 14.4297 45.2499 14.2279 45.6754 13.8235C45.9515 13.5601 46.1115 13.1937 46.1543 12.724H44.0798V12.0716H46.8474C46.8759 12.2136 46.8883 12.3503 46.8883 12.4815Z" fill="white"/>
<path d="M51.2773 10.2139H48.6763V11.935H51.0222V12.5874H48.6763V14.3085H51.2773V14.9763H47.9423V9.54697H51.2773V10.2139Z" fill="white"/>
<path d="M54.3723 14.9763H53.6382V10.2139H52.0426V9.54697H55.9679V10.2139H54.3723V14.9763Z" fill="white"/>
<path d="M58.8078 14.9763V9.54697H59.5418V14.9763H58.8078Z" fill="white"/>
<path d="M62.7969 14.9763H62.0629V10.2139H60.4673V9.54697H64.3925V10.2139H62.7969V14.9763Z" fill="white"/>
<path d="M71.823 14.275C71.2613 14.8234 70.5634 15.0976 69.7285 15.0976C68.8936 15.0976 68.1957 14.8234 67.635 14.275C67.0733 13.7267 66.7934 13.0552 66.7934 12.2617C66.7934 11.4681 67.0733 10.7966 67.635 10.2483C68.1957 9.69989 68.8936 9.4248 69.7285 9.4248C70.5587 9.4248 71.2556 9.7008 71.8192 10.2519C72.3828 10.803 72.6646 11.4726 72.6646 12.2617C72.6646 13.0552 72.3837 13.7267 71.823 14.275ZM68.1767 13.8199C68.5994 14.2271 69.1163 14.4298 69.7285 14.4298C70.3406 14.4298 70.8586 14.2262 71.2803 13.8199C71.703 13.4127 71.9153 12.8933 71.9153 12.2617C71.9153 11.63 71.703 11.1106 71.2803 10.7034C70.8586 10.2962 70.3406 10.0935 69.7285 10.0935C69.1163 10.0935 68.5994 10.2971 68.1767 10.7034C67.7549 11.1106 67.5426 11.63 67.5426 12.2617C67.5426 12.8933 67.7549 13.4127 68.1767 13.8199Z" fill="white"/>
<path d="M73.6947 14.9763V9.54697H74.5877L77.3638 13.7701H77.3952L77.3638 12.7241V9.54697H78.0979V14.9763H77.3315L74.4268 10.5478H74.3954L74.4268 11.5938V14.9763H73.6947Z" fill="white"/>
<path d="M46.8883 12.4815C46.8883 13.2398 46.6522 13.8434 46.1791 14.294C45.6421 14.8297 44.9414 15.0976 44.0808 15.0976C43.2563 15.0976 42.5547 14.8261 41.9787 14.2831C41.4017 13.7393 41.1133 13.0661 41.1133 12.2625C41.1133 11.4581 41.4017 10.7848 41.9787 10.2419C42.5547 9.69804 43.2563 9.42657 44.0808 9.42657C44.4902 9.42657 44.8814 9.50258 45.2527 9.6537C45.625 9.80572 45.923 10.0075 46.1457 10.26L45.644 10.7378C45.2661 10.3079 44.7453 10.0935 44.0798 10.0935C43.4781 10.0935 42.9583 10.2944 42.5194 10.6961C42.0805 11.0979 41.8616 11.62 41.8616 12.2616C41.8616 12.9032 42.0805 13.4253 42.5194 13.8271C42.9583 14.2288 43.4781 14.4297 44.0798 14.4297C44.7177 14.4297 45.2499 14.2279 45.6754 13.8235C45.9515 13.5601 46.1115 13.1937 46.1543 12.724H44.0798V12.0716H46.8474C46.8759 12.2136 46.8883 12.3503 46.8883 12.4815Z" stroke="white" stroke-width="0.204511" stroke-miterlimit="10"/>
<path d="M51.2773 10.2139H48.6763V11.935H51.0222V12.5874H48.6763V14.3085H51.2773V14.9763H47.9423V9.54697H51.2773V10.2139Z" stroke="white" stroke-width="0.204511" stroke-miterlimit="10"/>
<path d="M54.3723 14.9763H53.6382V10.2139H52.0426V9.54697H55.9679V10.2139H54.3723V14.9763Z" stroke="white" stroke-width="0.204511" stroke-miterlimit="10"/>
<path d="M58.8078 14.9763V9.54697H59.5418V14.9763H58.8078Z" stroke="white" stroke-width="0.204511" stroke-miterlimit="10"/>
<path d="M62.7969 14.9763H62.0629V10.2139H60.4673V9.54697H64.3925V10.2139H62.7969V14.9763Z" stroke="white" stroke-width="0.204511" stroke-miterlimit="10"/>
<path d="M71.823 14.275C71.2613 14.8234 70.5634 15.0976 69.7285 15.0976C68.8936 15.0976 68.1957 14.8234 67.635 14.275C67.0733 13.7267 66.7934 13.0552 66.7934 12.2617C66.7934 11.4681 67.0733 10.7966 67.635 10.2483C68.1957 9.69989 68.8936 9.4248 69.7285 9.4248C70.5587 9.4248 71.2556 9.7008 71.8192 10.2519C72.3828 10.803 72.6646 11.4726 72.6646 12.2617C72.6646 13.0552 72.3837 13.7267 71.823 14.275ZM68.1767 13.8199C68.5994 14.2271 69.1163 14.4298 69.7285 14.4298C70.3406 14.4298 70.8586 14.2262 71.2803 13.8199C71.703 13.4127 71.9153 12.8933 71.9153 12.2617C71.9153 11.63 71.703 11.1106 71.2803 10.7034C70.8586 10.2962 70.3406 10.0935 69.7285 10.0935C69.1163 10.0935 68.5994 10.2971 68.1767 10.7034C67.7549 11.1106 67.5426 11.63 67.5426 12.2617C67.5426 12.8933 67.7549 13.4127 68.1767 13.8199Z" stroke="white" stroke-width="0.204511" stroke-miterlimit="10"/>
<path d="M73.6947 14.9763V9.54697H74.5877L77.3638 13.7701H77.3952L77.3638 12.7241V9.54697H78.0979V14.9763H77.3315L74.4268 10.5478H74.3954L74.4268 11.5938V14.9763H73.6947Z" stroke="white" stroke-width="0.204511" stroke-miterlimit="10"/>
<defs>
<filter id="filter0_ii_5480_14752" x="12.4277" y="9.39648" width="23.2949" height="25.208" filterUnits="userSpaceOnUse" color-interpolation-filters="sRGB">
<feFlood flood-opacity="0" result="BackgroundImageFix"/>
<feBlend mode="normal" in="SourceGraphic" in2="BackgroundImageFix" result="shape"/>
<feColorMatrix in="SourceAlpha" type="matrix" values="0 0 0 0 0 0 0 0 0 0 0 0 0 0 0 0 0 0 127 0" result="hardAlpha"/>
<feOffset dy="-0.795"/>
<feComposite in2="hardAlpha" operator="arithmetic" k2="-1" k3="1"/>
<feColorMatrix type="matrix" values="0 0 0 0 0 0 0 0 0 0 0 0 0 0 0 0 0 0 0.12 0"/>
<feBlend mode="normal" in2="shape" result="effect1_innerShadow_5480_14752"/>
<feColorMatrix in="SourceAlpha" type="matrix" values="0 0 0 0 0 0 0 0 0 0 0 0 0 0 0 0 0 0 127 0" result="hardAlpha"/>
<feOffset dy="0.795"/>
<feComposite in2="hardAlpha" operator="arithmetic" k2="-1" k3="1"/>
<feColorMatrix type="matrix" values="0 0 0 0 1 0 0 0 0 1 0 0 0 0 1 0 0 0 0.25 0"/>
<feBlend mode="normal" in2="effect1_innerShadow_5480_14752" result="effect2_innerShadow_5480_14752"/>
</filter>
<filter id="filter1_i_5480_14752" x="12.8945" y="22" width="16.835" height="12.6045" filterUnits="userSpaceOnUse" color-interpolation-filters="sRGB">
<feFlood flood-opacity="0" result="BackgroundImageFix"/>
<feBlend mode="normal" in="SourceGraphic" in2="BackgroundImageFix" result="shape"/>
<feColorMatrix in="SourceAlpha" type="matrix" values="0 0 0 0 0 0 0 0 0 0 0 0 0 0 0 0 0 0 127 0" result="hardAlpha"/>
<feOffset dy="-0.795"/>
<feComposite in2="hardAlpha" operator="arithmetic" k2="-1" k3="1"/>
<feColorMatrix type="matrix" values="0 0 0 0 0 0 0 0 0 0 0 0 0 0 0 0 0 0 0.08 0"/>
<feBlend mode="normal" in2="shape" result="effect1_innerShadow_5480_14752"/>
</filter>
<linearGradient id="paint0_linear_5480_14752" x1="24.361" y1="10.9331" x2="7.92013" y2="27.8576" gradientUnits="userSpaceOnUse">
<stop stop-color="#00A0FF"/>
<stop offset="0.0066" stop-color="#00A1FF"/>
<stop offset="0.2601" stop-color="#00BEFF"/>
<stop offset="0.5122" stop-color="#00D2FF"/>
<stop offset="0.7604" stop-color="#00DFFF"/>
<stop offset="1" stop-color="#00E3FF"/>
</linearGradient>
<linearGradient id="paint1_linear_5480_14752" x1="36.5007" y1="22.0004" x2="12.0891" y2="22.0004" gradientUnits="userSpaceOnUse">
<stop stop-color="#FFE000"/>
<stop offset="0.4087" stop-color="#FFBD00"/>
<stop offset="0.7754" stop-color="#FFA500"/>
<stop offset="1" stop-color="#FF9C00"/>
</linearGradient>
<linearGradient id="paint2_linear_5480_14752" x1="27.415" y1="24.2482" x2="5.11907" y2="47.2" gradientUnits="userSpaceOnUse">
<stop stop-color="#FF3A44"/>
<stop offset="1" stop-color="#C31162"/>
</linearGradient>
<linearGradient id="paint3_linear_5480_14752" x1="9.72795" y1="2.57105" x2="19.6837" y2="12.8197" gradientUnits="userSpaceOnUse">
<stop stop-color="#32A071"/>
<stop offset="0.0685" stop-color="#2DA771"/>
<stop offset="0.4762" stop-color="#15CF74"/>
<stop offset="0.8009" stop-color="#06E775"/>
<stop offset="1" stop-color="#00F076"/>
</linearGradient>
</defs>
</svg>
