<svg width="92" height="36" viewBox="0 0 92 36" fill="none" xmlns="http://www.w3.org/2000/svg">
<path d="M4.875 22.2693V28.7497H1.62891V11.9451H9.55078C10.4258 11.9451 11.2148 12.0857 11.918 12.3669C12.6289 12.6404 13.2109 13.0154 13.6641 13.4919C14.1172 13.9607 14.4648 14.5037 14.707 15.1208C14.9492 15.738 15.0703 16.3943 15.0703 17.0896C15.0703 18.0037 14.8633 18.8474 14.4492 19.6208C14.043 20.3943 13.4141 21.031 12.5625 21.531C11.7109 22.0232 10.707 22.2693 9.55078 22.2693H4.875ZM4.875 19.2693H9.31641C10.0586 19.2693 10.6562 19.0779 11.1094 18.6951C11.5625 18.3044 11.7891 17.7771 11.7891 17.113C11.7891 16.4412 11.5625 15.9138 11.1094 15.531C10.6562 15.1404 10.0586 14.9451 9.31641 14.9451H4.875V19.2693Z" fill="#344054"/>
<path d="M14.0273 28.7497L20.7891 11.9451H25.3711L32.1211 28.7497H28.5469L27.082 24.9529H19.0664L17.625 28.7497H14.0273ZM20.1914 22.0349H25.9688L23.0742 14.5232L20.1914 22.0349Z" fill="#344054"/>
<path d="M47.9414 28.7497H44.1562C43.9375 28.2966 43.793 27.8162 43.7227 27.3083C43.6367 26.6677 43.5938 25.8669 43.5938 24.906C43.5938 23.9216 43.3633 23.2068 42.9023 22.7615C42.4492 22.3083 41.7695 22.0818 40.8633 22.0818H37.2656V28.7497H34.0195V11.9451H42.2578C43.9453 11.9451 45.2852 12.3904 46.2773 13.281C47.2773 14.1716 47.7773 15.3044 47.7773 16.6794C47.7773 17.6794 47.4766 18.5779 46.875 19.3747C46.2812 20.1638 45.4766 20.7458 44.4609 21.1208C45.25 21.3787 45.8711 21.824 46.3242 22.4568C46.7773 23.0818 47.0273 23.8826 47.0742 24.8591C47.1211 25.8435 47.1992 26.5818 47.3086 27.074C47.4258 27.5583 47.6367 27.988 47.9414 28.363V28.7497ZM37.2656 19.0818H42.0586C42.8477 19.0818 43.457 18.8943 43.8867 18.5193C44.3164 18.1443 44.5312 17.6326 44.5312 16.9841C44.5312 16.3435 44.3164 15.8435 43.8867 15.4841C43.4648 15.1247 42.8555 14.9451 42.0586 14.9451H37.2656V19.0818Z" fill="#344054"/>
<path d="M58.7578 18.6482L65.2852 28.7497H61.4414L56.5664 21.0974L53.8125 24.074V28.7497H50.5664V11.9451H53.8125V19.5154L60.7734 11.9451H64.9219L58.7578 18.6482Z" fill="#344054"/>
<path d="M67.1602 28.7497V11.9451H70.4062V28.7497H67.1602Z" fill="#344054"/>
<path d="M81.8438 11.7107C83.0234 11.6872 84.1602 11.906 85.2539 12.3669C86.3477 12.8279 87.2891 13.449 88.0781 14.2302C88.875 15.0115 89.5078 15.9412 89.9766 17.0193C90.4453 18.0896 90.668 19.199 90.6445 20.3474C90.668 21.5037 90.4453 22.6208 89.9766 23.699C89.5078 24.7693 88.875 25.6951 88.0781 26.4763C87.2891 27.2576 86.3477 27.8787 85.2539 28.3396C84.1602 28.7927 83.0234 29.0076 81.8438 28.9841C80.6641 29.0154 79.5234 28.8005 78.4219 28.3396C77.3203 27.8787 76.3711 27.2576 75.5742 26.4763C74.7773 25.6872 74.1445 24.7576 73.6758 23.6872C73.207 22.6091 72.9844 21.4958 73.0078 20.3474C72.9844 19.199 73.207 18.0896 73.6758 17.0193C74.1445 15.949 74.7773 15.0232 75.5742 14.2419C76.3711 13.4529 77.3203 12.8279 78.4219 12.3669C79.5234 11.906 80.6641 11.6872 81.8438 11.7107ZM79.0781 25.2341C79.9141 25.6872 80.8359 25.9138 81.8438 25.9138C82.8516 25.9138 83.7734 25.6872 84.6094 25.2341C85.4453 24.781 86.1133 24.1287 86.6133 23.2771C87.1133 22.4177 87.3633 21.4412 87.3633 20.3474C87.3633 18.699 86.8359 17.3552 85.7812 16.3162C84.7266 15.2771 83.4141 14.7576 81.8438 14.7576C80.2734 14.7576 78.9609 15.2771 77.9062 16.3162C76.8516 17.3552 76.3242 18.699 76.3242 20.3474C76.3242 21.4412 76.5742 22.4177 77.0742 23.2771C77.5742 24.1287 78.2422 24.781 79.0781 25.2341Z" fill="#344054"/>
<circle cx="69" cy="5.25" r="5" fill="#FFDC98" fill-opacity="0.4"/>
<circle cx="69" cy="5.25" r="2.2" fill="#FFDC98" stroke="white" stroke-width="0.6"/>
</svg>
