<svg width="94" height="94" viewBox="0 0 94 94" fill="none" xmlns="http://www.w3.org/2000/svg">
<path fill-rule="evenodd" clip-rule="evenodd" d="M44 84C63.8823 84 80 67.8823 80 48C80 28.1177 63.8823 12 44 12C24.1177 12 8 28.1177 8 48C8 67.8823 24.1177 84 44 84Z" fill="#D18FE9"/>
<path fill-rule="evenodd" clip-rule="evenodd" d="M74 30C80.6274 30 86 24.6274 86 18C86 11.3726 80.6274 6 74 6C67.3726 6 62 11.3726 62 18C62 24.6274 67.3726 30 74 30Z" fill="white"/>
<path d="M74.7871 22V15.2441C74.6152 15.6348 74.332 15.9551 73.9375 16.2051C73.5352 16.459 73.1309 16.6035 72.7246 16.6387L72.5195 15.5664C73.1445 15.5 73.6641 15.2988 74.0781 14.9629C74.4922 14.623 74.7695 14.168 74.9102 13.5977H75.8301V22H74.7871Z" fill="#D18FE9"/>
<path d="M44 49.5C46.4853 49.5 48.5 47.4853 48.5 45C48.5 42.5147 46.4853 40.5 44 40.5C41.5147 40.5 39.5 42.5147 39.5 45C39.5 47.4853 41.5147 49.5 44 49.5Z" stroke="white" stroke-width="2" stroke-linecap="round" stroke-linejoin="round"/>
<path d="M44 63C50 57 56 51.6274 56 45C56 38.3726 50.6274 33 44 33C37.3726 33 32 38.3726 32 45C32 51.6274 38 57 44 63Z" stroke="white" stroke-width="2" stroke-linecap="round" stroke-linejoin="round"/>
</svg>
