<svg width="94" height="94" viewBox="0 0 94 94" fill="none" xmlns="http://www.w3.org/2000/svg">
<path fill-rule="evenodd" clip-rule="evenodd" d="M44 84C63.8823 84 80 67.8823 80 48C80 28.1177 63.8823 12 44 12C24.1177 12 8 28.1177 8 48C8 67.8823 24.1177 84 44 84Z" fill="#FFD177"/>
<mask id="mask0_6618_897" style="mask-type:alpha" maskUnits="userSpaceOnUse" x="24" y="28" width="42" height="41">
<rect x="24" y="28" width="42" height="41" fill="#D9D9D9"/>
</mask>
<g mask="url(#mask0_6618_897)">
<path d="M32.0882 63.0221C31.2362 63.0221 30.5085 62.7203 29.9051 62.1169C29.3017 61.5136 29 60.7859 29 59.9339V37.0686C29 36.2167 29.3017 35.489 29.9051 34.8856C30.5085 34.2822 31.2362 33.9805 32.0882 33.9805H54.9534C55.8054 33.9805 56.5331 34.2822 57.1365 34.8856C57.7399 35.489 58.0416 36.2167 58.0416 37.0686V41.7173H55.4791V37.0686C55.4791 36.9153 55.4298 36.7894 55.3313 36.6908C55.2327 36.5922 55.1067 36.5429 54.9534 36.5429H32.0882C31.9348 36.5429 31.8089 36.5922 31.7103 36.6908C31.6117 36.7894 31.5625 36.9153 31.5625 37.0686V59.9339C31.5625 60.0872 31.6117 60.2132 31.7103 60.3117C31.8089 60.4103 31.9348 60.4596 32.0882 60.4596H54.9534C55.1067 60.4596 55.2327 60.4103 55.3313 60.3117C55.4298 60.2132 55.4791 60.0872 55.4791 59.9339V55.2853H58.0416V59.9339C58.0416 60.7859 57.7399 61.5136 57.1365 62.1169C56.5331 62.7203 55.8054 63.0221 54.9534 63.0221H32.0882ZM45.7548 56.1887C44.9028 56.1887 44.1752 55.887 43.5718 55.2836C42.9684 54.6802 42.6667 53.9525 42.6667 53.1006V43.902C42.6667 43.05 42.9684 42.3223 43.5718 41.7189C44.1752 41.1155 44.9028 40.8138 45.7548 40.8138H56.6618C57.5137 40.8138 58.2414 41.1155 58.8448 41.7189C59.4482 42.3223 59.7499 43.05 59.7499 43.902V53.1006C59.7499 53.9525 59.4482 54.6802 58.8448 55.2836C58.2414 55.887 57.5137 56.1887 56.6618 56.1887H45.7548ZM56.6618 53.6263C56.8151 53.6263 56.941 53.577 57.0396 53.4784C57.1382 53.3798 57.1875 53.2539 57.1875 53.1006V43.902C57.1875 43.7486 57.1382 43.6227 57.0396 43.5241C56.941 43.4255 56.8151 43.3763 56.6618 43.3763H45.7548C45.6015 43.3763 45.4755 43.4255 45.377 43.5241C45.2784 43.6227 45.2291 43.7486 45.2291 43.902V53.1006C45.2291 53.2539 45.2784 53.3798 45.377 53.4784C45.4755 53.577 45.6015 53.6263 45.7548 53.6263H56.6618ZM50.3541 51.0638C51.0659 51.0638 51.671 50.8146 52.1692 50.3164C52.6675 49.8181 52.9166 49.2131 52.9166 48.5013C52.9166 47.7895 52.6675 47.1844 52.1692 46.6862C51.671 46.1879 51.0659 45.9388 50.3541 45.9388C49.6423 45.9388 49.0373 46.1879 48.539 46.6862C48.0408 47.1844 47.7916 47.7895 47.7916 48.5013C47.7916 49.2131 48.0408 49.8181 48.539 50.3164C49.0373 50.8146 49.6423 51.0638 50.3541 51.0638Z" fill="white"/>
</g>
<path fill-rule="evenodd" clip-rule="evenodd" d="M74 30C80.6274 30 86 24.6274 86 18C86 11.3726 80.6274 6 74 6C67.3726 6 62 11.3726 62 18C62 24.6274 67.3726 30 74 30Z" fill="white"/>
<path d="M71.3359 19.6973L72.332 19.252C72.4062 19.8301 72.6289 20.291 73 20.6348C73.375 20.9785 73.8516 21.1504 74.4297 21.1504C74.9727 21.1504 75.4316 20.9785 75.8066 20.6348C76.1855 20.2871 76.375 19.8379 76.375 19.2871C76.375 18.6973 76.2012 18.2344 75.8535 17.8984C75.5098 17.5625 75.0488 17.3945 74.4707 17.3945C74.2402 17.3945 74.0176 17.4316 73.8027 17.5059C73.5879 17.5801 73.4102 17.6816 73.2695 17.8105L72.666 17.0664L75.502 14.5703H71.6934V13.5977H77.084V14.3945L74.459 16.6621C74.5957 16.6348 74.7422 16.6211 74.8984 16.6211C75.3359 16.6211 75.7422 16.7227 76.1172 16.9258C76.4961 17.1289 76.8047 17.4316 77.043 17.834C77.2852 18.2363 77.4062 18.6973 77.4062 19.2168C77.4062 20.0762 77.125 20.7754 76.5625 21.3145C76 21.8496 75.2891 22.1172 74.4297 22.1172C73.6172 22.1172 72.9355 21.8965 72.3848 21.4551C71.8379 21.0137 71.4883 20.4277 71.3359 19.6973Z" fill="#FFD177"/>
</svg>
