<svg width="94" height="94" viewBox="0 0 94 94" fill="none" xmlns="http://www.w3.org/2000/svg">
<path fill-rule="evenodd" clip-rule="evenodd" d="M44 84C63.8823 84 80 67.8823 80 48C80 28.1177 63.8823 12 44 12C24.1177 12 8 28.1177 8 48C8 67.8823 24.1177 84 44 84Z" fill="#65A4FC"/>
<mask id="mask0_6618_686" style="mask-type:alpha" maskUnits="userSpaceOnUse" x="24" y="27" width="40" height="42">
<rect x="24" y="27" width="40" height="41.25" fill="#D9D9D9"/>
</mask>
<g mask="url(#mask0_6618_686)">
<path d="M45.2495 48.8228V42.0403C45.2495 41.6746 45.1299 41.3683 44.8906 41.1215C44.6513 40.8747 44.3543 40.7513 43.9996 40.7513C43.6449 40.7513 43.3479 40.8747 43.1086 41.1215C42.8693 41.3683 42.7496 41.6746 42.7496 42.0403V49.2195C42.7496 49.4266 42.7859 49.6238 42.8586 49.8111C42.9312 49.9984 43.0455 50.1725 43.2015 50.3333L48.0765 55.3607C48.3073 55.5986 48.5974 55.7204 48.9467 55.7259C49.2961 55.7314 49.5915 55.6097 49.8329 55.3607C50.0744 55.1117 50.1951 54.8098 50.1951 54.4551C50.1951 54.1003 50.0744 53.7984 49.8329 53.5494L45.2495 48.8228ZM43.9996 63.9544C42.0338 63.9544 40.1919 63.571 38.474 62.8041C36.756 62.0373 35.2582 60.9951 33.9804 59.6774C32.7026 58.3597 31.692 56.815 30.9484 55.0434C30.2048 53.2717 29.833 51.3723 29.833 49.3451C29.833 47.3178 30.2048 45.4184 30.9484 43.6468C31.692 41.8751 32.7026 40.3305 33.9804 39.0128C35.2582 37.6951 36.756 36.6528 38.474 35.886C40.1919 35.1192 42.0338 34.7357 43.9996 34.7357C45.9654 34.7357 47.8073 35.1192 49.5252 35.886C51.2432 36.6528 52.741 37.6951 54.0188 39.0128C55.2965 40.3305 56.3072 41.8751 57.0508 43.6468C57.7944 45.4184 58.1662 47.3178 58.1662 49.3451C58.1662 51.3723 57.7944 53.2717 57.0508 55.0434C56.3072 56.815 55.2965 58.3597 54.0188 59.6774C52.741 60.9951 51.2432 62.0373 49.5252 62.8041C47.8073 63.571 45.9654 63.9544 43.9996 63.9544ZM28.0253 39.5151C27.7838 39.2662 27.6631 38.9643 27.6631 38.6095C27.6631 38.2547 27.7838 37.9529 28.0253 37.7039L32.7112 32.8715C32.9419 32.6336 33.232 32.5118 33.5813 32.5063C33.9307 32.5008 34.2261 32.6225 34.4675 32.8715C34.709 33.1206 34.8297 33.4224 34.8297 33.7772C34.8297 34.1319 34.709 34.4338 34.4675 34.6828L29.7816 39.5151C29.5509 39.7531 29.2608 39.8749 28.9115 39.8804C28.5621 39.8859 28.2667 39.7641 28.0253 39.5151ZM59.9739 39.5151C59.7324 39.7641 59.4397 39.8886 59.0957 39.8886C58.7517 39.8886 58.459 39.7641 58.2175 39.5151L53.5316 34.6828C53.3009 34.4448 53.1828 34.1457 53.1775 33.7854C53.1721 33.4252 53.2902 33.1206 53.5316 32.8715C53.7731 32.6225 54.0658 32.498 54.4098 32.498C54.7538 32.498 55.0466 32.6225 55.288 32.8715L59.9739 37.7039C60.2047 37.9418 60.3227 38.241 60.328 38.6012C60.3334 38.9615 60.2154 39.2662 59.9739 39.5151ZM43.9996 61.3763C47.2389 61.3763 49.9932 60.2062 52.2624 57.8661C54.5316 55.5259 55.6663 52.6856 55.6663 49.3451C55.6663 46.0045 54.5316 43.1642 52.2624 40.824C49.9932 38.4839 47.2389 37.3138 43.9996 37.3138C40.7603 37.3138 38.006 38.4839 35.7368 40.824C33.4675 43.1642 32.3329 46.0045 32.3329 49.3451C32.3329 52.6856 33.4675 55.5259 35.7368 57.8661C38.006 60.2062 40.7603 61.3763 43.9996 61.3763Z" fill="white"/>
</g>
<path fill-rule="evenodd" clip-rule="evenodd" d="M74 30C80.6274 30 86 24.6274 86 18C86 11.3726 80.6274 6 74 6C67.3726 6 62 11.3726 62 18C62 24.6274 67.3726 30 74 30Z" fill="white"/>
<path d="M74.002 18.6309C74.6426 18.2988 75.0859 18.0508 75.332 17.8867C75.668 17.6641 75.9219 17.416 76.0938 17.1426C76.2656 16.8691 76.3516 16.5449 76.3516 16.1699C76.3516 15.6426 76.1777 15.2188 75.8301 14.8984C75.4824 14.5781 75.0137 14.418 74.4238 14.418C73.8887 14.418 73.4414 14.584 73.082 14.916C72.7266 15.2441 72.5488 15.6406 72.5488 16.1055C72.5488 16.5898 72.7051 17.0273 73.0176 17.418L72.127 17.9922C71.7051 17.4414 71.4941 16.8379 71.4941 16.1816C71.4941 15.4238 71.7695 14.7852 72.3203 14.2656C72.875 13.7422 73.5918 13.4805 74.4707 13.4805C75.373 13.4805 76.0859 13.7246 76.6094 14.2129C77.1367 14.6973 77.4004 15.332 77.4004 16.1172C77.4004 16.7852 77.2324 17.3418 76.8965 17.7871C76.5645 18.2324 76.0469 18.6328 75.3438 18.9883C74.8594 19.2461 74.4434 19.4746 74.0957 19.6738C73.8066 19.8379 73.5566 20.0371 73.3457 20.2715C73.1387 20.5059 73.0137 20.7578 72.9707 21.0273H77.4121V22H71.6758C71.6758 21.4492 71.7715 20.9609 71.9629 20.5352C72.1543 20.1055 72.4141 19.7441 72.7422 19.4512C73.0742 19.1543 73.4941 18.8809 74.002 18.6309Z" fill="#65A4FC"/>
</svg>
