<svg id="icons_features" data-name="icons features" xmlns="http://www.w3.org/2000/svg" xmlns:xlink="http://www.w3.org/1999/xlink" width="30" height="30" viewBox="0 0 30 30">
  <defs>
    <linearGradient id="linear-gradient" x1="0.817" y1="0.208" x2="0.205" y2="1" gradientUnits="objectBoundingBox">
      <stop offset="0" stop-color="#ffd177"/>
      <stop offset="0.307" stop-color="#ffa1a3"/>
      <stop offset="0.979" stop-color="#d18fe9"/>
      <stop offset="1" stop-color="#d18fe9"/>
    </linearGradient>
  </defs>
  <rect id="icons_features_Frame_Background_" data-name="icons features [Frame Background]" width="30" height="30" fill="none"/>
  <path id="Vector" d="M3.53.2a.714.714,0,0,1,1.01.015A.792.792,0,0,1,4.523,1.33a10.5,10.5,0,0,0,.223,14.961.792.792,0,0,1,.035,1.129.712.712,0,0,1-.993.03A12,12,0,0,1,3.53.2ZM19.478,1.33A.792.792,0,0,1,19.463.217.714.714,0,0,1,20.471.2a12,12,0,0,1-.258,17.248.712.712,0,0,1-.993-.03.792.792,0,0,1,.035-1.128A10.5,10.5,0,0,0,19.478,1.33ZM6.2,2.836a.7.7,0,0,1,.984.024A.816.816,0,0,1,7.155,4a6.751,6.751,0,0,0,.216,9.613.816.816,0,0,1,.052,1.164.694.694,0,0,1-.957.042A8.242,8.242,0,0,1,6.2,2.836ZM16.845,4a.816.816,0,0,1-.027-1.14.7.7,0,0,1,.984-.024,8.246,8.246,0,0,1-.267,11.985.694.694,0,0,1-.96-.045.816.816,0,0,1,.054-1.163A6.751,6.751,0,0,0,16.845,4ZM13.326,7.375A1.875,1.875,0,1,1,12,6.826a1.875,1.875,0,0,1,1.326.549Z" transform="translate(3 6.299)" fill="url(#linear-gradient)"/>
</svg>
