<svg width="30" height="18" viewBox="0 0 30 18" fill="none" xmlns="http://www.w3.org/2000/svg">
<g id="Group">
<path id="Vector" d="M8.88541 15.2695V14.0011C7.99624 13.9882 7.12273 13.964 6.26487 13.9285C5.40701 13.8929 4.63212 13.8542 3.9402 13.8123C3.24828 13.7703 2.70507 13.7267 2.31058 13.6815C1.91609 13.6364 1.63744 13.5073 1.47464 13.2942C1.31184 13.0812 1.23044 12.7907 1.23044 12.4228V11.106C1.23044 10.6605 1.25861 10.2813 1.31497 9.96825C1.37132 9.65519 1.46681 9.35987 1.60144 9.0823C1.73607 8.80473 1.92549 8.50134 2.16969 8.17214L3.12774 6.87466C3.19036 6.52609 3.27176 6.15169 3.37195 5.75148C3.47214 5.35126 3.58172 4.95427 3.70069 4.56052C3.81966 4.16676 3.9402 3.80204 4.0623 3.46638C4.18441 3.13071 4.29555 2.84992 4.39574 2.62399C4.54603 2.28832 4.76832 2.01882 5.06262 1.81549C5.35692 1.61216 5.71697 1.48467 6.14277 1.43303C6.34315 1.40721 6.67815 1.38139 7.14778 1.35557C7.61741 1.32974 8.19036 1.30876 8.86663 1.29263C9.54287 1.27649 10.2911 1.26843 11.1114 1.26843C11.7877 1.26843 12.4186 1.27488 13.0041 1.28779C13.5895 1.3007 14.1077 1.31684 14.5585 1.33621L15.0658 0.0580958C14.5836 0.0387305 14.0013 0.0242066 13.3188 0.0145239C12.6362 0.0048413 11.9004 0 11.1114 0C10.3037 0 9.55074 0.00645506 8.85254 0.0193652C8.15435 0.0322754 7.55635 0.0484131 7.05855 0.0677784C6.56074 0.0871436 6.20852 0.109736 6.00188 0.135557C5.3757 0.213018 4.8278 0.414739 4.35817 0.74072C3.88854 1.0667 3.52849 1.50403 3.27802 2.05271C3.16531 2.29155 3.03068 2.6369 2.87414 3.08875C2.7176 3.54061 2.55792 4.05056 2.39511 4.61861C2.23231 5.18666 2.09455 5.76116 1.98184 6.34211L1.19286 7.39753C0.898558 7.78483 0.66531 8.15761 0.493112 8.51587C0.320914 8.87413 0.19568 9.2582 0.117407 9.6681C0.0391358 10.078 0 10.5573 0 11.106V12.6164C0 13.3071 0.169067 13.8445 0.507201 14.2286C0.845337 14.6127 1.33688 14.8434 1.98184 14.9209C2.3325 14.9661 2.76143 15.0081 3.26863 15.0468C3.77583 15.0855 4.33625 15.1194 4.9499 15.1484C5.56356 15.1775 6.20539 15.2018 6.87539 15.2211C7.5454 15.2405 8.21541 15.2566 8.88541 15.2695ZM10.5761 6.3518L11.5529 2.33352C11.484 2.33352 11.412 2.33352 11.3369 2.33352C11.2617 2.33352 11.1866 2.33352 11.1114 2.33352C9.85284 2.33352 8.83218 2.34804 8.04947 2.37708C7.26675 2.40613 6.70633 2.44648 6.36819 2.49812C6.12398 2.53684 5.92517 2.60785 5.77176 2.71114C5.61835 2.81441 5.48216 2.97579 5.36318 3.19527C5.26299 3.36956 5.15341 3.61969 5.03445 3.94567C4.91547 4.27165 4.79963 4.62507 4.68692 5.00592C4.57421 5.38677 4.48028 5.74825 4.40514 6.09037C4.36756 6.26466 4.38322 6.3873 4.4521 6.45831C4.52098 6.52931 4.64621 6.55836 4.8278 6.54545C5.10958 6.52609 5.40388 6.50673 5.71071 6.48736C6.01754 6.46799 6.34471 6.45024 6.69224 6.4341C7.03976 6.41796 7.41077 6.40505 7.80526 6.39538C8.19975 6.38569 8.62712 6.37601 9.08735 6.36633C9.54758 6.35664 10.0438 6.3518 10.5761 6.3518ZM1.72825 17.9612H2.82717C3.18409 17.9612 3.48153 17.8386 3.71948 17.5933C3.95742 17.348 4.07639 17.0446 4.07639 16.6832V14.4077L0.479023 13.8558V16.6832C0.479023 17.0446 0.597997 17.348 0.835943 17.5933C1.07389 17.8386 1.37132 17.9612 1.72825 17.9612ZM4.33939 12.6843C4.77145 12.6843 5.1315 12.5342 5.41954 12.234C5.70758 11.9339 5.85159 11.5643 5.85159 11.1253C5.85159 10.6799 5.70758 10.3088 5.41954 10.0119C5.1315 9.71491 4.77145 9.56643 4.33939 9.56643C3.90733 9.56643 3.54728 9.71491 3.25923 10.0119C2.97119 10.3088 2.82717 10.6799 2.82717 11.1253C2.82717 11.5643 2.97119 11.9339 3.25923 12.234C3.54728 12.5342 3.90733 12.6843 4.33939 12.6843ZM18.8886 15.2986C19.6775 15.2986 20.5103 15.2889 21.387 15.2695C22.2636 15.2501 23.1246 15.2227 23.97 15.1872C24.8153 15.1517 25.5902 15.1114 26.2947 15.0661C26.9991 15.021 27.5736 14.9726 28.0182 14.9209C28.6506 14.8434 29.139 14.6272 29.4834 14.2722C29.8278 13.9171 30 13.4298 30 12.8101V11.106C30 10.5573 29.9609 10.078 29.8826 9.6681C29.8043 9.2582 29.6791 8.87413 29.5069 8.51587C29.3347 8.15761 29.1015 7.78483 28.8072 7.39753L28.0182 6.34211C27.8992 5.76116 27.7599 5.18666 27.6002 4.61861C27.4405 4.05056 27.2809 3.54061 27.1211 3.08875C26.9615 2.6369 26.8284 2.29155 26.722 2.05271C26.4715 1.50403 26.1115 1.06831 25.6419 0.745562C25.1722 0.422808 24.6243 0.219473 23.9982 0.135557C23.7915 0.103281 23.4392 0.077461 22.9414 0.0580958C22.4437 0.0387305 21.8457 0.0242066 21.1475 0.0145239C20.4493 0.0048413 19.6963 0 18.8886 0C18.0745 0 17.32 0.00645506 16.625 0.0193652C15.9299 0.0322754 15.3335 0.0484131 14.8356 0.0677784C14.3378 0.0871436 13.9824 0.109736 13.7696 0.135557C13.1496 0.213018 12.6033 0.414739 12.1306 0.74072C11.6578 1.0667 11.2962 1.50403 11.0457 2.05271C10.9393 2.29155 10.8062 2.6369 10.6465 3.08875C10.4868 3.54061 10.3272 4.05056 10.1675 4.61861C10.0079 5.18666 9.87166 5.76116 9.75894 6.34211L8.96056 7.39753C8.67252 7.78483 8.44083 8.15761 8.2655 8.51587C8.09017 8.87413 7.96337 9.2582 7.8851 9.6681C7.80683 10.078 7.76769 10.5573 7.76769 11.106V12.8101C7.76769 13.4298 7.93989 13.9171 8.28428 14.2722C8.62868 14.6272 9.12023 14.8434 9.75894 14.9209C10.2035 14.9726 10.778 15.021 11.4825 15.0661C12.1869 15.1114 12.9618 15.1517 13.8072 15.1872C14.6525 15.2227 15.5134 15.2501 16.3901 15.2695C17.2667 15.2889 18.0996 15.2986 18.8886 15.2986ZM18.8886 14.0301C18.0871 14.0301 17.2527 14.0204 16.3854 14.0011C15.5182 13.9817 14.6744 13.9575 13.8541 13.9285C13.0338 13.8994 12.2949 13.8639 11.6374 13.8219C10.9799 13.78 10.4634 13.7332 10.0877 13.6815C9.68692 13.6299 9.40514 13.4992 9.24234 13.2894C9.07953 13.0796 8.99812 12.7907 8.99812 12.4228V11.106C8.99812 10.6605 9.0263 10.2813 9.08266 9.96825C9.13901 9.65519 9.2345 9.35987 9.36913 9.0823C9.50376 8.80473 9.69316 8.50134 9.93735 8.17214L10.9048 6.87466C10.9674 6.52609 11.0488 6.15169 11.149 5.75148C11.2492 5.35126 11.3588 4.95427 11.4778 4.56052C11.5967 4.16676 11.7157 3.80204 11.8347 3.46638C11.9536 3.13071 12.0632 2.84992 12.1634 2.62399C12.3137 2.28832 12.536 2.01882 12.8303 1.81549C13.1246 1.61216 13.4878 1.48467 13.9199 1.43303C14.1203 1.40721 14.4537 1.38139 14.9202 1.35557C15.3866 1.32974 15.958 1.30876 16.6343 1.29263C17.3106 1.27649 18.062 1.26843 18.8886 1.26843C19.7089 1.26843 20.4587 1.27649 21.138 1.29263C21.8175 1.30876 22.392 1.32974 22.8616 1.35557C23.3313 1.38139 23.6569 1.40721 23.8385 1.43303C24.2768 1.49112 24.6431 1.62184 24.9374 1.82517C25.2317 2.02851 25.454 2.29478 25.6043 2.62399C25.7107 2.84992 25.8234 3.13071 25.9424 3.46638C26.0614 3.80204 26.1804 4.16676 26.2994 4.56052C26.4183 4.95427 26.5279 5.35126 26.628 5.75148C26.7282 6.15169 26.8097 6.52609 26.8723 6.87466L27.8303 8.17214C28.0745 8.50134 28.2639 8.80473 28.3986 9.0823C28.5332 9.35987 28.6287 9.65519 28.685 9.96825C28.7414 10.2813 28.7696 10.6605 28.7696 11.106V12.4228C28.7696 12.7907 28.6882 13.0812 28.5254 13.2942C28.3626 13.5073 28.0808 13.6364 27.68 13.6815C27.3044 13.7332 26.7878 13.7784 26.1303 13.8171C25.4728 13.8558 24.7355 13.8913 23.9183 13.9236C23.1012 13.9559 22.2574 13.9817 21.387 14.0011C20.5166 14.0204 19.6838 14.0301 18.8886 14.0301ZM12.1822 6.09037C12.1446 6.26466 12.1603 6.3873 12.2291 6.45831C12.2981 6.52931 12.4202 6.55836 12.5955 6.54545C13.0965 6.50672 13.6412 6.47283 14.2298 6.44378C14.8184 6.41474 15.4915 6.39214 16.2492 6.376C17.0069 6.35987 17.8867 6.3518 18.8886 6.3518C19.8905 6.3518 20.7686 6.35987 21.5231 6.376C22.2777 6.39214 22.9493 6.41474 23.5379 6.44378C24.1265 6.47283 24.6713 6.50672 25.1722 6.54545C25.3475 6.55836 25.4696 6.52931 25.5385 6.45831C25.6074 6.3873 25.6231 6.26466 25.5855 6.09037C25.5104 5.74825 25.418 5.38677 25.3084 5.00592C25.1988 4.62507 25.0845 4.27165 24.9655 3.94567C24.8466 3.61969 24.737 3.36956 24.6368 3.19527C24.5116 2.97579 24.3738 2.81441 24.2235 2.71114C24.0733 2.60785 23.876 2.53684 23.6318 2.49812C23.2874 2.44648 22.7254 2.40613 21.9459 2.37708C21.1663 2.34804 20.1472 2.33352 18.8886 2.33352C17.6237 2.33352 16.6014 2.34804 15.8219 2.37708C15.0423 2.40613 14.4834 2.44648 14.1452 2.49812C13.9011 2.53684 13.7023 2.60785 13.5488 2.71114C13.3955 2.81441 13.2561 2.97579 13.1308 3.19527C13.037 3.36956 12.9305 3.61969 12.8115 3.94567C12.6926 4.27165 12.5767 4.62507 12.464 5.00592C12.3513 5.38677 12.2574 5.74825 12.1822 6.09037ZM9.49593 17.9612H10.6043C10.9549 17.9612 11.2493 17.8386 11.4872 17.5933C11.7252 17.348 11.8441 17.0446 11.8441 16.6832V14.3787L8.2561 13.8461V16.6832C8.2561 17.0446 8.37508 17.348 8.61303 17.5933C8.85097 17.8386 9.14527 17.9612 9.49593 17.9612ZM27.1729 17.9612H28.2717C28.6224 17.9612 28.9183 17.8386 29.1594 17.5933C29.4005 17.348 29.521 17.0446 29.521 16.6832V13.8461L25.9236 14.3787V16.6832C25.9236 17.0446 26.0426 17.348 26.2805 17.5933C26.5185 17.8386 26.8159 17.9612 27.1729 17.9612ZM12.1165 12.6843C12.5423 12.6843 12.8992 12.5342 13.1872 12.234C13.4753 11.9339 13.6193 11.5643 13.6193 11.1253C13.6193 10.6799 13.4753 10.3088 13.1872 10.0119C12.8992 9.71491 12.5423 9.56643 12.1165 9.56643C11.6844 9.56643 11.3243 9.71491 11.0363 10.0119C10.7483 10.3088 10.6043 10.6799 10.6043 11.1253C10.6043 11.5643 10.7483 11.9339 11.0363 12.234C11.3243 12.5342 11.6844 12.6843 12.1165 12.6843ZM16.3995 12.2969H21.3682C21.6875 12.2969 21.9489 12.1936 22.1525 11.987C22.356 11.7805 22.4577 11.5094 22.4577 11.1737C22.4577 10.8445 22.356 10.5767 22.1525 10.3701C21.9489 10.1635 21.6875 10.0603 21.3682 10.0603H16.3995C16.0801 10.0603 15.8187 10.1635 15.6153 10.3701C15.4117 10.5767 15.31 10.8445 15.31 11.1737C15.31 11.5094 15.4117 11.7805 15.6153 11.987C15.8187 12.1936 16.0801 12.2969 16.3995 12.2969ZM25.6606 12.6843C26.0865 12.6843 26.4449 12.5342 26.7361 12.234C27.0273 11.9339 27.1729 11.5643 27.1729 11.1253C27.1729 10.6799 27.0273 10.3088 26.7361 10.0119C26.4449 9.71491 26.0865 9.56643 25.6606 9.56643C25.2286 9.56643 24.8685 9.71491 24.5804 10.0119C24.2924 10.3088 24.1484 10.6799 24.1484 11.1253C24.1484 11.5643 24.2924 11.9339 24.5804 12.234C24.8685 12.5342 25.2286 12.6843 25.6606 12.6843Z" fill="url(#paint0_linear_6618_116)"/>
</g>
<defs>
<linearGradient id="paint0_linear_6618_116" x1="24.4954" y1="3.74192" x2="5.52557" y2="4.6256" gradientUnits="userSpaceOnUse">
<stop stop-color="#FFD177"/>
<stop offset="0.307292" stop-color="#FFA2A3"/>
<stop offset="0.979167" stop-color="#D18FE9"/>
<stop offset="1" stop-color="#D18FE9"/>
</linearGradient>
</defs>
</svg>
