<svg width="30" height="30" viewBox="0 0 30 30" fill="none" xmlns="http://www.w3.org/2000/svg">
<g id="icons features">
<mask id="mask0_6618_77" style="mask-type:alpha" maskUnits="userSpaceOnUse" x="0" y="0" width="30" height="30">
<rect id="Bounding box" width="30" height="30" fill="#D9D9D9"/>
</mask>
<g mask="url(#mask0_6618_77)">
<path id="business_center" d="M5.38463 25.6249C4.75321 25.6249 4.21875 25.4061 3.78125 24.9686C3.34375 24.5311 3.125 23.9967 3.125 23.3652V10.3846C3.125 9.75315 3.34375 9.21869 3.78125 8.78119C4.21875 8.34369 4.75321 8.12494 5.38463 8.12494H10.625V6.00959C10.625 5.3782 10.8438 4.84375 11.2813 4.40625C11.7188 3.96875 12.2532 3.75 12.8846 3.75H17.1153C17.7467 3.75 18.2812 3.96875 18.7187 4.40625C19.1562 4.84375 19.3749 5.3782 19.3749 6.00959V8.12494H24.6153C25.2467 8.12494 25.7812 8.34369 26.2187 8.78119C26.6562 9.21869 26.8749 9.75315 26.8749 10.3846V23.3652C26.8749 23.9967 26.6562 24.5311 26.2187 24.9686C25.7812 25.4061 25.2467 25.6249 24.6153 25.6249H5.38463ZM12.5 8.12494H17.5V6.00959C17.5 5.91343 17.4599 5.82528 17.3798 5.74516C17.2996 5.66501 17.2115 5.62494 17.1153 5.62494H12.8846C12.7885 5.62494 12.7003 5.66501 12.6202 5.74516C12.54 5.82528 12.5 5.91343 12.5 6.00959V8.12494ZM25 18.4374H18.1249V19.4951C18.1249 19.8172 18.0172 20.086 17.8016 20.3015C17.5861 20.5171 17.3172 20.6249 16.9951 20.6249H13.0048C12.6827 20.6249 12.4139 20.5171 12.1983 20.3015C11.9828 20.086 11.875 19.8172 11.875 19.4951V18.4374H4.99997V23.3652C4.99997 23.4614 5.04003 23.5496 5.12016 23.6297C5.2003 23.7098 5.28846 23.7499 5.38463 23.7499H24.6153C24.7115 23.7499 24.7996 23.7098 24.8798 23.6297C24.9599 23.5496 25 23.4614 25 23.3652V18.4374ZM13.75 18.7499H16.25V16.2499H13.75V18.7499ZM4.99997 16.5624H11.875V15.5048C11.875 15.1826 11.9828 14.9138 12.1983 14.6983C12.4139 14.4827 12.6827 14.3749 13.0048 14.3749H16.9951C17.3172 14.3749 17.5861 14.4827 17.8016 14.6983C18.0172 14.9138 18.1249 15.1826 18.1249 15.5048V16.5624H25V10.3846C25 10.2884 24.9599 10.2002 24.8798 10.1201C24.7996 10.04 24.7115 9.99991 24.6153 9.99991H5.38463C5.28846 9.99991 5.2003 10.04 5.12016 10.1201C5.04003 10.2002 4.99997 10.2884 4.99997 10.3846V16.5624Z" fill="url(#paint0_linear_6618_77)"/>
</g>
</g>
<defs>
<linearGradient id="paint0_linear_6618_77" x1="22.5172" y1="8.30726" x2="7.48059" y2="8.76257" gradientUnits="userSpaceOnUse">
<stop stop-color="#FFD177"/>
<stop offset="0.307292" stop-color="#FFA2A3"/>
<stop offset="0.979167" stop-color="#D18FE9"/>
<stop offset="1" stop-color="#D18FE9"/>
</linearGradient>
</defs>
</svg>
