<svg width="30" height="30" viewBox="0 0 30 30" fill="none" xmlns="http://www.w3.org/2000/svg">
<g id="icons features">
<mask id="mask0_6618_3724" style="mask-type:alpha" maskUnits="userSpaceOnUse" x="0" y="0" width="30" height="30">
<rect id="Bounding box" width="30" height="30" fill="#D9D9D9"/>
</mask>
<g mask="url(#mask0_6618_3724)">
<path id="nest_remote_comfort_sensor" d="M15.0004 24.6395C13.8177 24.6395 12.8089 24.2221 11.974 23.3871C11.1391 22.5522 10.7216 21.5434 10.7216 20.3607C10.7216 19.1781 11.1391 18.1693 11.974 17.3343C12.8089 16.4994 13.8177 16.0819 15.0004 16.0819C16.1831 16.0819 17.1919 16.4994 18.0268 17.3343C18.8617 18.1693 19.2792 19.1781 19.2792 20.3607C19.2792 21.5434 18.8617 22.5522 18.0268 23.3871C17.1919 24.2221 16.1831 24.6395 15.0004 24.6395ZM15.003 22.7646C15.6647 22.7646 16.2304 22.5289 16.6999 22.0577C17.1695 21.5864 17.4042 21.0199 17.4042 20.3582C17.4042 19.6964 17.1686 19.1308 16.6974 18.6612C16.2261 18.1917 15.6596 17.9569 14.9978 17.9569C14.3361 17.9569 13.7704 18.1925 13.3009 18.6638C12.8313 19.135 12.5966 19.7015 12.5966 20.3633C12.5966 21.025 12.8322 21.5907 13.3034 22.0603C13.7747 22.5298 14.3412 22.7646 15.003 22.7646ZM5.0029 10.7743L3.62793 9.47622C5.09905 8.03874 6.79895 6.90533 8.72762 6.076C10.6563 5.24669 12.7472 4.83203 15.0004 4.83203C17.2536 4.83203 19.3445 5.24669 21.2732 6.076C23.2018 6.90533 24.9017 8.03874 26.3729 9.47622L24.9979 10.7743C23.679 9.50665 22.1678 8.51187 20.4643 7.78991C18.7608 7.06795 16.9395 6.70697 15.0004 6.70697C13.0613 6.70697 11.24 7.06795 9.53649 7.78991C7.83299 8.51187 6.32179 9.50665 5.0029 10.7743ZM20.9402 14.6588C20.1293 13.9072 19.2275 13.3315 18.2347 12.9317C17.242 12.5319 16.1639 12.3319 15.0004 12.3319C13.8369 12.3319 12.764 12.5319 11.7817 12.9317C10.7993 13.3315 9.89228 13.9072 9.06055 14.6588L7.68559 13.3608C8.6984 12.4313 9.82058 11.715 11.0521 11.2118C12.2837 10.7086 13.5998 10.457 15.0004 10.457C16.401 10.457 17.7139 10.7086 18.9391 11.2118C20.1642 11.715 21.2832 12.4313 22.296 13.3608L20.9402 14.6588Z" fill="url(#paint0_linear_6618_3724)"/>
</g>
</g>
<defs>
<linearGradient id="paint0_linear_6618_3724" x1="22.1995" y1="8.95859" x2="7.80078" y2="9.41972" gradientUnits="userSpaceOnUse">
<stop stop-color="#FFD177"/>
<stop offset="0.307292" stop-color="#FFA2A3"/>
<stop offset="0.979167" stop-color="#D18FE9"/>
<stop offset="1" stop-color="#D18FE9"/>
</linearGradient>
</defs>
</svg>
