<svg width="30" height="30" viewBox="0 0 30 30" fill="none" xmlns="http://www.w3.org/2000/svg">
<g id="icons features">
<mask id="mask0_6618_4283" style="mask-type:alpha" maskUnits="userSpaceOnUse" x="0" y="0" width="30" height="30">
<rect id="Bounding box" width="30" height="30" fill="#D9D9D9"/>
</mask>
<g mask="url(#mask0_6618_4283)">
<path id="price_check" d="M17.4375 23.1632L23.8654 16.7353C24.0384 16.5622 24.256 16.4737 24.518 16.4697C24.78 16.4657 25.0016 16.5542 25.1827 16.7353C25.3637 16.9164 25.4543 17.1359 25.4543 17.3939C25.4543 17.6519 25.3637 17.8715 25.1827 18.0526L18.2283 25.0069C18.0024 25.2328 17.7387 25.3458 17.4375 25.3458C17.1362 25.3458 16.8726 25.2328 16.6466 25.0069L13.2163 21.5766C13.0433 21.4035 12.9547 21.186 12.9507 20.924C12.9467 20.6619 13.0352 20.4404 13.2163 20.2593C13.3974 20.0782 13.617 19.9877 13.875 19.9877C14.133 19.9877 14.3525 20.0782 14.5336 20.2593L17.4375 23.1632ZM8.4375 17.4805V17.1679H6.24997C5.98395 17.1679 5.7612 17.0782 5.58172 16.8987C5.40224 16.7192 5.3125 16.4965 5.3125 16.2305C5.3125 15.9644 5.40224 15.7417 5.58172 15.5622C5.7612 15.3827 5.98395 15.293 6.24997 15.293H11.5625V12.1679H6.41825C6.11217 12.1679 5.85135 12.0602 5.63581 11.8446C5.42027 11.6291 5.3125 11.3683 5.3125 11.0622V6.39875C5.3125 6.09267 5.42027 5.83184 5.63581 5.61628C5.85135 5.40074 6.11217 5.29297 6.41825 5.29297H8.4375V4.98047C8.4375 4.71445 8.52724 4.4917 8.70672 4.31222C8.8862 4.13272 9.10895 4.04297 9.37497 4.04297C9.64099 4.04297 9.86374 4.13272 10.0432 4.31222C10.2227 4.4917 10.3124 4.71445 10.3124 4.98047V5.29297H12.5C12.766 5.29297 12.9887 5.38272 13.1682 5.56222C13.3477 5.7417 13.4374 5.96445 13.4374 6.23047C13.4374 6.49649 13.3477 6.71924 13.1682 6.89872C12.9887 7.0782 12.766 7.16794 12.5 7.16794H7.18744V10.293H12.3317C12.6378 10.293 12.8986 10.4007 13.1141 10.6163C13.3297 10.8318 13.4374 11.0927 13.4374 11.3988V16.0622C13.4374 16.3683 13.3297 16.6291 13.1141 16.8446C12.8986 17.0602 12.6378 17.1679 12.3317 17.1679H10.3124V17.4805C10.3124 17.7465 10.2227 17.9692 10.0432 18.1487C9.86374 18.3282 9.64099 18.4179 9.37497 18.4179C9.10895 18.4179 8.8862 18.3282 8.70672 18.1487C8.52724 17.9692 8.4375 17.7465 8.4375 17.4805Z" fill="url(#paint0_linear_6618_4283)"/>
</g>
</g>
<defs>
<linearGradient id="paint0_linear_6618_4283" x1="21.7585" y1="8.48105" x2="9.00356" y2="8.8174" gradientUnits="userSpaceOnUse">
<stop stop-color="#FFD177"/>
<stop offset="0.307292" stop-color="#FFA2A3"/>
<stop offset="0.979167" stop-color="#D18FE9"/>
<stop offset="1" stop-color="#D18FE9"/>
</linearGradient>
</defs>
</svg>
