<svg width="30" height="30" viewBox="0 0 30 30" fill="none" xmlns="http://www.w3.org/2000/svg">
<g id="icons features">
<mask id="mask0_6618_90" style="mask-type:alpha" maskUnits="userSpaceOnUse" x="0" y="0" width="30" height="30">
<rect id="Bounding box" width="30" height="30" fill="#D9D9D9"/>
</mask>
<g mask="url(#mask0_6618_90)">
<path id="notifications_active" d="M6.56233 23.6057C6.2967 23.6057 6.07404 23.5158 5.89436 23.3361C5.71467 23.1563 5.62483 22.9336 5.62483 22.6678C5.62483 22.4021 5.71467 22.1795 5.89436 22C6.07404 21.8205 6.2967 21.7308 6.56233 21.7308H7.88445V12.4038C7.88445 10.7227 8.40327 9.23636 9.44092 7.94469C10.4786 6.65302 11.8107 5.82691 13.4373 5.46635V4.6875C13.4373 4.25348 13.5891 3.88456 13.8926 3.58075C14.1962 3.27692 14.5648 3.125 14.9984 3.125C15.432 3.125 15.8011 3.27692 16.1055 3.58075C16.41 3.88456 16.5623 4.25348 16.5623 4.6875V5.46635C18.1889 5.82691 19.521 6.65302 20.5587 7.94469C21.5963 9.23636 22.1151 10.7227 22.1151 12.4038V21.7308H23.4373C23.7029 21.7308 23.9255 21.8207 24.1052 22.0004C24.2849 22.1802 24.3748 22.4029 24.3748 22.6687C24.3748 22.9344 24.2849 23.157 24.1052 23.3365C23.9255 23.516 23.7029 23.6057 23.4373 23.6057H6.56233ZM14.9977 27.1153C14.3757 27.1153 13.844 26.8941 13.4025 26.4516C12.961 26.0091 12.7402 25.4771 12.7402 24.8557H17.2594C17.2594 25.4791 17.0379 26.0116 16.595 26.4531C16.1521 26.8946 15.6196 27.1153 14.9977 27.1153ZM9.75939 21.7308H20.2402V12.4038C20.2402 10.9567 19.7286 9.72151 18.7053 8.69828C17.6821 7.67503 16.4469 7.16341 14.9998 7.16341C13.5527 7.16341 12.3175 7.67503 11.2943 8.69828C10.271 9.72151 9.75939 10.9567 9.75939 12.4038V21.7308ZM4.21258 12.3918C3.94255 12.3918 3.71779 12.2904 3.53829 12.0877C3.35881 11.885 3.2819 11.6466 3.30754 11.3726C3.43415 9.93028 3.80754 8.57932 4.42773 7.31972C5.04792 6.06012 5.84999 4.95435 6.83395 4.00244C7.04068 3.82133 7.27385 3.73119 7.53345 3.732C7.79305 3.73279 8.00699 3.84096 8.17526 4.0565C8.34353 4.27204 8.41485 4.50642 8.3892 4.75963C8.36355 5.01281 8.24737 5.23637 8.04064 5.43028C7.2602 6.20912 6.6256 7.10695 6.13683 8.12378C5.64803 9.14061 5.34034 10.2348 5.21373 11.4062C5.18009 11.6803 5.07233 11.913 4.89045 12.1045C4.70855 12.296 4.4826 12.3918 4.21258 12.3918ZM25.793 12.3918C25.519 12.3918 25.291 12.296 25.1091 12.1045C24.9273 11.913 24.8195 11.6803 24.7859 11.4062C24.6593 10.2348 24.3536 9.14262 23.8688 8.12978C23.384 7.11697 22.7514 6.22114 21.971 5.44228C21.7614 5.24912 21.6405 5.02374 21.6083 4.76616C21.576 4.50859 21.644 4.27204 21.8123 4.0565C21.9806 3.84096 22.1965 3.73479 22.4601 3.738C22.7237 3.74121 22.9589 3.83336 23.1656 4.01444C24.1496 4.96636 24.9517 6.07012 25.5719 7.32572C26.192 8.58132 26.5654 9.93028 26.692 11.3726C26.7177 11.6466 26.6407 11.885 26.461 12.0877C26.2813 12.2904 26.0586 12.3918 25.793 12.3918Z" fill="url(#paint0_linear_6618_90)"/>
</g>
</g>
<defs>
<linearGradient id="paint0_linear_6618_90" x1="22.4044" y1="8.12297" x2="7.59045" y2="8.52586" gradientUnits="userSpaceOnUse">
<stop stop-color="#FFD177"/>
<stop offset="0.307292" stop-color="#FFA2A3"/>
<stop offset="0.979167" stop-color="#D18FE9"/>
<stop offset="1" stop-color="#D18FE9"/>
</linearGradient>
</defs>
</svg>
