<svg id="call" xmlns="http://www.w3.org/2000/svg" xmlns:xlink="http://www.w3.org/1999/xlink" width="24" height="24" viewBox="0 0 24 24">
  <defs>
    <clipPath id="clip-path">
      <rect id="Bounding_box" data-name="Bounding box" width="24" height="24" fill="#d9d9d9"/>
    </clipPath>
  </defs>
  <g id="Bounding_box-2" data-name="Bounding box" clip-path="url(#clip-path)">
    <path id="call-2" data-name="call" d="M15.94,17a13.481,13.481,0,0,1-5.68-1.314,18.078,18.078,0,0,1-5.242-3.709,18.208,18.208,0,0,1-3.7-5.242A13.449,13.449,0,0,1,0,1.06,1.032,1.032,0,0,1,.3.3,1.013,1.013,0,0,1,1.05,0H4.311A1,1,0,0,1,4.98.247a1.087,1.087,0,0,1,.368.611L5.921,3.8a1.681,1.681,0,0,1-.025.7,1.046,1.046,0,0,1-.3.494L3.283,7.246A13.873,13.873,0,0,0,4.557,9.178a19.053,19.053,0,0,0,1.551,1.739,17.255,17.255,0,0,0,1.75,1.529,17.576,17.576,0,0,0,2,1.313L12.1,11.5a1.27,1.27,0,0,1,.568-.342,1.633,1.633,0,0,1,.693-.048l2.777.565a1.174,1.174,0,0,1,.618.387.986.986,0,0,1,.239.65V15.95a1.013,1.013,0,0,1-.3.75,1.032,1.032,0,0,1-.757.3ZM2.573,5.827,4.358,4.119a.178.178,0,0,0,.063-.106.234.234,0,0,0,0-.125L3.981,1.654a.206.206,0,0,0-.067-.115A.194.194,0,0,0,3.788,1.5H1.65a.132.132,0,0,0-.135.135,12.792,12.792,0,0,0,.336,2.083,12.731,12.731,0,0,0,.722,2.11Zm8.7,8.642a10.285,10.285,0,0,0,2.074.709,11.762,11.762,0,0,0,2.018.291.131.131,0,0,0,.135-.135v-2.1a.194.194,0,0,0-.038-.125.206.206,0,0,0-.115-.067l-2.1-.427a.158.158,0,0,0-.1,0,.245.245,0,0,0-.091.063Z" transform="translate(3.5 3.5)" fill="#d0d5dd"/>
  </g>
</svg>
